<?xml version="1.0" encoding="UTF-8" standalone="no"?>
<!-- Created with Inkscape (http://www.inkscape.org/) -->
<svg
   xmlns:dc="http://purl.org/dc/elements/1.1/"
   xmlns:cc="http://creativecommons.org/ns#"
   xmlns:rdf="http://www.w3.org/1999/02/22-rdf-syntax-ns#"
   xmlns:svg="http://www.w3.org/2000/svg"
   xmlns="http://www.w3.org/2000/svg"
   xmlns:sodipodi="http://sodipodi.sourceforge.net/DTD/sodipodi-0.dtd"
   xmlns:inkscape="http://www.inkscape.org/namespaces/inkscape"
   id="svg6791"
   sodipodi:version="0.32"
   inkscape:version="0.46dev+devel"
   width="474.15756"
   height="527.091"
   sodipodi:docbase="C:\Documents and Settings\Administrador\Desktop"
   sodipodi:docname="marcelomotta_Drums.svg"
   inkscape:output_extension="org.inkscape.output.svg.inkscape"
   version="1.0">
  <metadata
     id="metadata6796">
    <rdf:RDF>
      <cc:Work
         rdf:about="">
        <dc:format>image/svg+xml</dc:format>
        <dc:type
           rdf:resource="http://purl.org/dc/dcmitype/StillImage" />
      </cc:Work>
    </rdf:RDF>
  </metadata>
  <defs
     id="defs6794" />
  <sodipodi:namedview
     inkscape:window-height="643"
     inkscape:window-width="864"
     inkscape:pageshadow="2"
     inkscape:pageopacity="0.0"
     guidetolerance="10.0"
     gridtolerance="10.0"
     objecttolerance="10.0"
     borderopacity="1.0"
     bordercolor="#666666"
     pagecolor="#ffffff"
     id="base"
     inkscape:zoom="0.35824168"
     inkscape:cx="372.04724"
     inkscape:cy="526.18109"
     inkscape:window-x="88"
     inkscape:window-y="88"
     inkscape:current-layer="svg6791"
     showgrid="false" />
  <g
     id="g6727"
     transform="matrix(2.269379,0,0,2.39506,1461.8659,-1250.3105)">
    <path
       style="fill:#1a1a1a;fill-rule:evenodd;stroke:#000000;stroke-width:1.07137632px;stroke-linecap:butt;stroke-linejoin:miter;stroke-opacity:1"
       d="M -487.67432,614.31439 L -475.3042,612.20095 L -475.99142,632.63085 L -492.48492,634.74429 L -502.79336,620.6547 L -487.67432,614.31439 z"
       id="path6599"
       sodipodi:nodetypes="cccccc" />
    <path
       id="path6601"
       d="M -493.11849,634.25408 L -475.72548,633.141 L -474.48313,629.80177 L -493.11849,630.35831 L -493.11849,634.25408 z"
       style="fill:#808080;fill-rule:evenodd;stroke:#000000;stroke-width:1.28034794px;stroke-linecap:butt;stroke-linejoin:miter;stroke-opacity:1" />
    <g
       id="g6603"
       transform="matrix(1.058178,0,0,1.08474,45.61546,256.1568)">
      <path
         id="path6605"
         d="M -482.27451,313.35432 L -486.09126,313.93673 L -490.15829,395.61341 L -514.12245,420.10254 L -508.0532,420.68495 L -489.81415,399.82898 L -492.8175,419.49239 L -487.21751,419.9084 L -487.21751,399.38523 L -486.71696,399.41297 L -468.38406,420.49082 L -462.5338,419.29825 C -462.5338,419.29825 -483.86816,397.71392 -486.31025,394.94779 L -482.27451,313.35432 z"
         style="fill:#1a1a1a;fill-rule:evenodd;stroke:#000000;stroke-width:0.94259065px;stroke-linecap:butt;stroke-linejoin:miter;stroke-opacity:1" />
      <path
         transform="matrix(1.002025,9.572715e-2,0,0.823509,-0.141813,100.9872)"
         d="M -460.55322,310.12335 A 22.624453,5.4881096 0 1 1 -505.80213,310.12335 A 22.624453,5.4881096 0 1 1 -460.55322,310.12335 z"
         sodipodi:ry="5.4881096"
         sodipodi:rx="22.624453"
         sodipodi:cy="310.12335"
         sodipodi:cx="-483.17767"
         id="path6607"
         style="fill:#806600;fill-opacity:1;stroke:#000000;stroke-width:1;stroke-miterlimit:4;stroke-dasharray:none;stroke-dashoffset:0;stroke-opacity:1"
         sodipodi:type="arc" />
      <path
         sodipodi:type="arc"
         style="fill:#806600;fill-opacity:1;stroke:#000000;stroke-width:1;stroke-miterlimit:4;stroke-dasharray:none;stroke-dashoffset:0;stroke-opacity:1"
         id="path6609"
         sodipodi:cx="-483.17767"
         sodipodi:cy="310.12335"
         sodipodi:rx="22.624453"
         sodipodi:ry="5.4881096"
         d="M -460.55322,310.12335 A 22.624453,5.4881096 0 1 1 -505.80213,310.12335 A 22.624453,5.4881096 0 1 1 -460.55322,310.12335 z"
         transform="matrix(1.002025,9.572715e-2,0,0.823509,0.754204,98.52311)" />
      <rect
         y="416.18945"
         x="-514.98627"
         height="5.8241162"
         width="9.8561974"
         id="rect6611"
         style="fill:#999999;fill-opacity:1;stroke:#000000;stroke-width:1;stroke-miterlimit:4;stroke-dasharray:none;stroke-dashoffset:0;stroke-opacity:1" />
      <rect
         y="417.77902"
         x="-494.13239"
         height="5.333056"
         width="9.1411324"
         id="rect6613"
         style="fill:#999999;fill-opacity:1;stroke:#000000;stroke-width:1.04305124;stroke-miterlimit:4;stroke-dasharray:none;stroke-dashoffset:0;stroke-opacity:1" />
      <rect
         y="418.16467"
         x="-470.89825"
         height="5.4577932"
         width="9.4898739"
         id="rect6615"
         style="fill:#808080;fill-opacity:1;stroke:#000000;stroke-width:0.91831428;stroke-miterlimit:4;stroke-dasharray:none;stroke-dashoffset:0;stroke-opacity:1" />
      <path
         id="path6617"
         d="M -489.67379,314.49143 L -488.10576,317.17948 L -479.36958,318.0755 L -476.68153,314.93944 L -489.67379,314.49143 z"
         style="fill:#000000;fill-rule:evenodd;stroke:#000000;stroke-width:1px;stroke-linecap:butt;stroke-linejoin:miter;stroke-opacity:1" />
      <path
         sodipodi:nodetypes="ccccc"
         id="path6619"
         d="M -487.88176,306.65127 L -478.47357,307.7713 L -480.0416,305.08325 L -485.86572,304.41123 L -487.88176,306.65127 z"
         style="fill:#000000;fill-rule:evenodd;stroke:#000000;stroke-width:1px;stroke-linecap:butt;stroke-linejoin:miter;stroke-opacity:1" />
      <path
         id="path6621"
         d="M -481.50824,304.82907 L -481.69374,300.01188 L -484.3684,299.2893 L -484.7875,304.82907 L -481.50824,304.82907 z"
         style="fill:#1a1a1a;fill-rule:evenodd;stroke:#000000;stroke-width:1.06034923px;stroke-linecap:butt;stroke-linejoin:miter;stroke-opacity:1" />
    </g>
    <path
       sodipodi:nodetypes="ccccc"
       id="path6625"
       d="M -505.41831,700.7613 L -491.03489,725.04724 L -505.41831,725.81745 L -512.93912,703.65239 L -505.41831,700.7613 z"
       style="fill:#333333;fill-rule:evenodd;stroke:#000000;stroke-width:1.07137632px;stroke-linecap:butt;stroke-linejoin:miter;stroke-opacity:1" />
    <path
       style="fill:#333333;fill-rule:evenodd;stroke:#000000;stroke-width:1.07137632px;stroke-linecap:butt;stroke-linejoin:miter;stroke-opacity:1"
       d="M -584.84108,704.24559 L -599.2245,728.53153 L -584.84108,729.30174 L -577.32027,707.13668 L -584.84108,704.24559 z"
       id="path6627"
       sodipodi:nodetypes="ccccc" />
    <path
       id="path6629"
       d="M -611.18488,655.15764 L -611.96821,699.97183 L -607.95226,699.53835 L -608.26874,654.54267 L -611.18488,655.15764 z"
       style="fill:#1a1a1a;fill-rule:evenodd;stroke:#000000;stroke-width:0.86738616px;stroke-linecap:butt;stroke-linejoin:miter;stroke-opacity:1" />
    <rect
       style="fill:#999999;fill-opacity:1;stroke:#000000;stroke-width:1;stroke-miterlimit:4;stroke-dasharray:none;stroke-dashoffset:0;stroke-opacity:1"
       id="rect6631"
       width="9.0922413"
       height="5.1955667"
       x="-615.67462"
       y="697.11536" />
    <path
       style="fill:#1a1a1a;fill-rule:evenodd;stroke:#000000;stroke-width:1px;stroke-linecap:butt;stroke-linejoin:miter;stroke-opacity:1"
       d="M -590.51493,603.3821 L -626.8942,598.18507 L -632.09124,652.75397 L -589.21567,655.35249 L -578.8216,605.33099 L -590.51493,603.3821 z"
       id="path6633" />
    <path
       style="fill:#1a1a1a;fill-rule:evenodd;stroke:#000000;stroke-width:0.86738616px;stroke-linecap:butt;stroke-linejoin:miter;stroke-opacity:1"
       d="M -630.4287,652.70703 L -638.96049,696.70855 L -634.93015,696.97705 L -627.45012,652.60633 L -630.4287,652.70703 z"
       id="path6635" />
    <path
       sodipodi:nodetypes="ccccc"
       id="path6637"
       d="M -632.80802,649.48946 C -622.65823,652.52577 -609.27895,654.24194 -596.82238,653.44986 C -597.02742,654.814 -597.23246,656.17814 -597.43751,657.54227 C -610.89151,657.72406 -623.95569,654.83048 -633.88451,652.65778 C -633.52569,651.60167 -633.16686,650.54557 -632.80802,649.48946 z"
       style="fill:#b3b3b3;fill-rule:evenodd;stroke:#000000;stroke-width:1.08547878px;stroke-linecap:butt;stroke-linejoin:miter;stroke-opacity:1" />
    <path
       style="fill:#1a1a1a;fill-opacity:1;stroke:#000000;stroke-width:1.07137632;stroke-miterlimit:4;stroke-dasharray:none;stroke-dashoffset:0;stroke-opacity:1"
       d="M -486.39656,661.33597 C -486.39656,684.00588 -504.2226,708.61773 -513.5938,713.04691 C -531.52566,721.52216 -552.28812,720.80396 -572.53799,713.37376 C -586.76444,708.15371 -598.61814,684.36294 -598.61814,660.99862 C -598.61814,626.08223 -570.15533,594.03337 -539.54549,594.03337 C -508.93565,594.03337 -486.39656,626.41958 -486.39656,661.33597 z"
       id="path6639"
       sodipodi:nodetypes="cssssc" />
    <path
       style="fill:#808080;fill-rule:evenodd;stroke:#000000;stroke-width:1.17805338px;stroke-linecap:butt;stroke-linejoin:miter;stroke-opacity:1"
       d="M -488.90235,616.56785 L -474.51232,615.42887 L -473.48446,612.01196 L -488.90235,612.58145 L -488.90235,616.56785 z"
       id="path6641" />
    <path
       sodipodi:type="arc"
       style="fill:#cccccc;fill-opacity:1;stroke:#000000;stroke-width:1.23488021;stroke-miterlimit:4;stroke-dasharray:none;stroke-dashoffset:0;stroke-opacity:1"
       id="path6643"
       sodipodi:cx="-561.03369"
       sodipodi:cy="366.50623"
       sodipodi:rx="65.298462"
       sodipodi:ry="57.746937"
       d="M -495.73523,366.50623 A 65.298462,57.746937 0 1 1 -626.33215,366.50623 A 65.298462,57.746937 0 1 1 -495.73523,366.50623 z"
       transform="matrix(0.789085,-0.209727,0.203199,0.89991,-174.0737,216.1089)" />
    <path
       sodipodi:type="arc"
       style="fill:#000000;fill-opacity:1;stroke:none;stroke-width:5;stroke-miterlimit:4;stroke-dasharray:none;stroke-dashoffset:0;stroke-opacity:1"
       id="path6645"
       sodipodi:cx="-537.49072"
       sodipodi:cy="344.74008"
       sodipodi:rx="15.99146"
       sodipodi:ry="15.547253"
       d="M -521.49926,344.74008 A 15.99146,15.547253 0 1 1 -553.48218,344.74008 A 15.99146,15.547253 0 1 1 -521.49926,344.74008 z"
       transform="matrix(0.864262,0,0,0.973254,-59.37229,349.1658)" />
    <rect
       style="fill:#333333;fill-opacity:1;stroke:#000000;stroke-width:0.89779264;stroke-miterlimit:4;stroke-dasharray:none;stroke-dashoffset:0;stroke-opacity:1"
       id="rect6647"
       width="3.133306"
       height="5.5734515"
       x="-541.44135"
       y="606.42761" />
    <rect
       y="714.97223"
       x="-546.789"
       height="4.3923955"
       width="2.6393614"
       id="rect6649"
       style="fill:#333333;fill-opacity:1;stroke:#000000;stroke-width:0.73149723;stroke-miterlimit:4;stroke-dasharray:none;stroke-dashoffset:0;stroke-opacity:1" />
    <rect
       style="fill:#333333;fill-opacity:1;stroke:#000000;stroke-width:0.73149723;stroke-miterlimit:4;stroke-dasharray:none;stroke-dashoffset:0;stroke-opacity:1"
       id="rect6651"
       width="2.7056134"
       height="4.2848396"
       x="660.15179"
       y="591.70404"
       transform="matrix(0,1,-1,0,0,0)" />
    <rect
       transform="matrix(0,1,-1,0,0,0)"
       y="487.05157"
       x="664.20007"
       height="4.2848396"
       width="2.7056134"
       id="rect6653"
       style="fill:#333333;fill-opacity:1;stroke:#000000;stroke-width:0.73149723;stroke-miterlimit:4;stroke-dasharray:none;stroke-dashoffset:0;stroke-opacity:1" />
    <rect
       style="fill:#333333;fill-opacity:1;stroke:#000000;stroke-width:0.73159993;stroke-miterlimit:4;stroke-dasharray:none;stroke-dashoffset:0;stroke-opacity:1"
       id="rect6655"
       width="2.6626353"
       height="4.3552237"
       x="-48.276096"
       y="801.508"
       transform="matrix(0.800107,0.599857,-0.58079,0.814054,0,0)" />
    <rect
       transform="matrix(0.800107,0.599857,-0.58079,0.814054,0,0)"
       y="801.508"
       x="-48.276096"
       height="4.3552237"
       width="2.6626353"
       id="rect6657"
       style="fill:#333333;fill-opacity:1;stroke:#000000;stroke-width:0.73159993;stroke-miterlimit:4;stroke-dasharray:none;stroke-dashoffset:0;stroke-opacity:1" />
    <rect
       style="fill:#333333;fill-opacity:1;stroke:#000000;stroke-width:0.73160052;stroke-miterlimit:4;stroke-dasharray:none;stroke-dashoffset:0;stroke-opacity:1"
       id="rect6659"
       width="2.6626368"
       height="4.3552265"
       x="827.71564"
       y="151.45006"
       transform="matrix(-0.800107,0.599857,0.58079,0.814054,0,0)" />
    <rect
       transform="matrix(-0.800107,0.599857,0.58079,0.814054,0,0)"
       y="254.9124"
       x="818.90979"
       height="4.3552275"
       width="2.6626372"
       id="rect6661"
       style="fill:#333333;fill-opacity:1;stroke:#000000;stroke-width:0.7316007;stroke-miterlimit:4;stroke-dasharray:none;stroke-dashoffset:0;stroke-opacity:1" />
    <rect
       style="fill:#333333;fill-opacity:1;stroke:#000000;stroke-width:0.73160124;stroke-miterlimit:4;stroke-dasharray:none;stroke-dashoffset:0;stroke-opacity:1"
       id="rect6663"
       width="2.6626389"
       height="4.3552308"
       x="-66.669739"
       y="907.06311"
       transform="matrix(0.800107,0.599857,-0.58079,0.814054,0,0)" />
    <path
       style="fill:#1a1a1a;fill-rule:evenodd;stroke:#000000;stroke-width:1.08851886px;stroke-linecap:butt;stroke-linejoin:miter;stroke-opacity:1"
       d="M -545.08007,603.13443 L -544.65505,585.06763 L -561.65519,584.25866 L -562.08018,589.9214 L -551.03012,589.38209 L -551.45511,604.4827 L -545.08007,603.13443 z"
       id="path6665" />
    <path
       style="fill:#1a1a1a;fill-rule:evenodd;stroke:#000000;stroke-width:1.01584172px;stroke-linecap:butt;stroke-linejoin:miter;stroke-opacity:1"
       d="M -534.80114,602.76224 L -533.59566,585.62325 L -516.31694,583.88451 L -516.71877,590.09429 L -528.37186,589.34912 L -527.97001,603.50741 L -534.80114,602.76224 z"
       id="path6667" />
    <path
       style="fill:#999999;fill-rule:evenodd;stroke:#000000;stroke-width:1.07137632px;stroke-linecap:butt;stroke-linejoin:miter;stroke-opacity:1"
       d="M -552.87397,606.5155 C -549.91211,606.5155 -542.34291,603.47929 -542.34291,603.47929 L -542.01382,600.10573 L -553.53216,601.1178 L -552.87397,606.5155 z"
       id="path6669" />
    <path
       style="fill:#999999;fill-rule:evenodd;stroke:#000000;stroke-width:1.07137632px;stroke-linecap:butt;stroke-linejoin:miter;stroke-opacity:1"
       d="M -536.09009,598.41895 L -536.74829,603.81665 L -525.55903,605.84078 L -526.21723,600.44309 L -536.09009,598.41895 z"
       id="path6671" />
    <path
       style="fill:#1a1a1a;fill-rule:evenodd;stroke:#000000;stroke-width:1.35463452px;stroke-linecap:butt;stroke-linejoin:miter;stroke-opacity:1"
       d="M -517.20829,572.46272 L -520.14963,612.59061 C -509.22464,617.94101 -497.87944,620.3346 -485.69385,616.8146 L -481.07173,573.72991 C -491.85667,570.35073 -499.70028,569.08352 -517.20829,572.46272 z"
       id="path6673"
       sodipodi:nodetypes="ccccc" />
    <path
       style="fill:#b3b3b3;fill-rule:evenodd;stroke:#000000;stroke-width:1.01714528px;stroke-linecap:butt;stroke-linejoin:miter;stroke-opacity:1"
       d="M -596.82203,605.07913 C -605.80426,602.06652 -617.64448,600.36374 -628.66814,601.14964 C -628.48668,599.79615 -628.30523,598.44266 -628.12376,597.08918 C -616.21742,596.90881 -604.65605,599.7798 -595.86937,601.93554 C -596.18692,602.9834 -596.50447,604.03126 -596.82203,605.07913 z"
       id="path6675"
       sodipodi:nodetypes="ccccc" />
    <path
       style="fill:#1a1a1a;fill-rule:evenodd;stroke:#000000;stroke-width:1.38769424px;stroke-linecap:butt;stroke-linejoin:miter;stroke-opacity:1"
       d="M -557.93759,573.7843 L -561.13555,612.92319 C -573.16602,614.82578 -584.2828,617.54374 -597.227,613.73859 L -595.39959,576.23048 C -581.5417,570.11502 -568.59751,571.33812 -557.93759,573.7843 z"
       id="path6677"
       sodipodi:nodetypes="ccccc" />
    <path
       style="fill:#999999;fill-rule:evenodd;stroke:#000000;stroke-width:1.43814123px;stroke-linecap:butt;stroke-linejoin:miter;stroke-opacity:1"
       d="M -597.27095,578.65113 C -583.44386,573.51992 -569.12292,572.03458 -557.27112,576.62565 C -557.1065,575.68043 -556.94191,574.7352 -556.77729,573.78998 C -567.64146,568.65878 -584.43149,570.4142 -596.77713,575.41035 C -596.94174,576.49061 -597.10633,577.57086 -597.27095,578.65113 z"
       id="path6679"
       sodipodi:nodetypes="ccccc" />
    <path
       sodipodi:nodetypes="ccccc"
       id="path6681"
       d="M -519.02625,576.23925 C -506.29594,570.92646 -490.38305,571.48569 -479.47137,576.23925 C -481.59308,574.84115 -479.16826,574.2819 -479.01672,573.30323 C -489.0191,567.99044 -507.20524,567.71082 -518.5716,572.8838 C -518.72315,574.00229 -518.8747,575.12077 -519.02625,576.23925 z"
       style="fill:#999999;fill-rule:evenodd;stroke:#000000;stroke-width:1.40412998px;stroke-linecap:butt;stroke-linejoin:miter;stroke-opacity:1" />
    <path
       sodipodi:nodetypes="ccccc"
       id="path6683"
       d="M -559.25471,609.82814 C -572.68356,614.97185 -586.59204,616.46083 -598.10248,611.85856 C -598.26236,612.80608 -598.42221,613.75361 -598.58209,614.70114 C -588.03084,619.84484 -571.72437,618.08515 -559.7343,613.07681 C -559.57444,611.99392 -559.41457,610.91104 -559.25471,609.82814 z"
       style="fill:#999999;fill-rule:evenodd;stroke:#000000;stroke-width:1.41900504px;stroke-linecap:butt;stroke-linejoin:miter;stroke-opacity:1" />
    <path
       style="fill:#999999;fill-rule:evenodd;stroke:#000000;stroke-width:1.41230071px;stroke-linecap:butt;stroke-linejoin:miter;stroke-opacity:1"
       d="M -521.72654,611.93112 C -508.84744,617.24381 -495.50837,618.78171 -484.46915,614.02823 C -484.31582,615.00689 -484.16251,615.98557 -484.00918,616.96423 C -494.12848,622.27693 -509.76736,620.45942 -521.26656,615.28652 C -521.4199,614.16807 -521.5732,613.04957 -521.72654,611.93112 z"
       id="path6685"
       sodipodi:nodetypes="ccccc" />
    <rect
       style="fill:#999999;fill-opacity:1;stroke:#000000;stroke-width:1.16965377;stroke-miterlimit:4;stroke-dasharray:none;stroke-dashoffset:0;stroke-opacity:1"
       id="rect6687"
       width="19.145348"
       height="6.751266"
       x="-601.42108"
       y="722.58655" />
    <rect
       style="fill:#999999;fill-opacity:1;stroke:#000000;stroke-width:1.07137632;stroke-miterlimit:4;stroke-dasharray:none;stroke-dashoffset:0;stroke-opacity:1"
       id="rect6689"
       width="21.304102"
       height="7.044796"
       x="-508.71933"
       y="723.16785" />
    <g
       id="g6691"
       transform="matrix(1,0,0,1.087694,38.97632,272.7495)">
      <g
         id="g6693">
        <path
           sodipodi:type="arc"
           style="fill:#806600;fill-opacity:1;stroke:#000000;stroke-width:1;stroke-miterlimit:4;stroke-dasharray:none;stroke-dashoffset:0;stroke-opacity:1"
           id="path6695"
           sodipodi:cx="-478.64157"
           sodipodi:cy="249.97188"
           sodipodi:rx="35.070076"
           sodipodi:ry="13.963085"
           d="M -443.5715,249.97188 A 35.070076,13.963085 0 1 1 -513.71165,249.97188 A 35.070076,13.963085 0 1 1 -443.5715,249.97188 z"
           transform="matrix(1,-0.566004,0,1,-31.1734,-266.3672)" />
        <path
           id="path6697"
           d="M -507.61456,256.50897 L -511.6381,257.42859 L -515.92548,386.39537 L -541.18803,425.0635 L -534.78995,425.98311 L -515.5627,393.05172 L -518.72877,424.10008 L -512.82537,424.75695 L -512.82537,392.35103 L -512.2977,392.39485 L -492.97152,425.67658 L -486.80429,423.79352 C -486.80429,423.79352 -509.29455,389.71206 -511.86896,385.34437 L -507.61456,256.50897 z"
           style="fill:#1a1a1a;fill-rule:evenodd;stroke:#000000;stroke-width:1.21610343px;stroke-linecap:butt;stroke-linejoin:miter;stroke-opacity:1" />
        <path
           style="fill:#000000;fill-rule:evenodd;stroke:#000000;stroke-width:1px;stroke-linecap:butt;stroke-linejoin:miter;stroke-opacity:1"
           d="M -515.81043,261.79354 L -502.70868,254.99316 L -506.37968,252.24493 L -513.97995,256.14161 L -515.81043,261.79354 z"
           id="path6699"
           sodipodi:nodetypes="ccccc" />
      </g>
      <rect
         style="fill:#999999;fill-opacity:1;stroke:#000000;stroke-width:1.07137668;stroke-miterlimit:4;stroke-dasharray:none;stroke-dashoffset:0;stroke-opacity:1"
         id="rect6701"
         width="10.429611"
         height="6.3176517"
         x="-542.2052"
         y="421.20978" />
      <rect
         style="fill:#999999;fill-opacity:1;stroke:#000000;stroke-width:1.11750078;stroke-miterlimit:4;stroke-dasharray:none;stroke-dashoffset:0;stroke-opacity:1"
         id="rect6703"
         width="9.672945"
         height="5.7849793"
         x="-520.13812"
         y="422.93405" />
      <rect
         style="fill:#808080;fill-opacity:1;stroke:#000000;stroke-width:0.98386049;stroke-miterlimit:4;stroke-dasharray:none;stroke-dashoffset:0;stroke-opacity:1"
         id="rect6705"
         width="10.041976"
         height="5.9202867"
         x="-495.55225"
         y="423.35239" />
    </g>
    <g
       id="g6707"
       transform="matrix(-1,0,0,1.100685,-1118.376,269.1151)">
      <g
         id="g6709">
        <path
           transform="matrix(1,-0.566004,0,1,-31.1734,-266.3672)"
           d="M -443.5715,249.97188 A 35.070076,13.963085 0 1 1 -513.71165,249.97188 A 35.070076,13.963085 0 1 1 -443.5715,249.97188 z"
           sodipodi:ry="13.963085"
           sodipodi:rx="35.070076"
           sodipodi:cy="249.97188"
           sodipodi:cx="-478.64157"
           id="path6711"
           style="fill:#806600;fill-opacity:1;stroke:#000000;stroke-width:1;stroke-miterlimit:4;stroke-dasharray:none;stroke-dashoffset:0;stroke-opacity:1"
           sodipodi:type="arc" />
        <path
           style="fill:#1a1a1a;fill-rule:evenodd;stroke:#000000;stroke-width:1.21610343px;stroke-linecap:butt;stroke-linejoin:miter;stroke-opacity:1"
           d="M -507.61456,256.50897 L -511.6381,257.42859 L -515.92548,386.39537 L -541.18803,425.0635 L -534.78995,425.98311 L -515.5627,393.05172 L -518.72877,424.10008 L -512.82537,424.75695 L -512.82537,392.35103 L -512.2977,392.39485 L -492.97152,425.67658 L -486.80429,423.79352 C -486.80429,423.79352 -509.29455,389.71206 -511.86896,385.34437 L -507.61456,256.50897 z"
           id="path6713" />
        <path
           sodipodi:nodetypes="ccccc"
           id="path6715"
           d="M -515.81043,261.79354 L -502.70868,254.99316 L -506.37968,252.24493 L -513.97995,256.14161 L -515.81043,261.79354 z"
           style="fill:#000000;fill-rule:evenodd;stroke:#000000;stroke-width:1px;stroke-linecap:butt;stroke-linejoin:miter;stroke-opacity:1" />
      </g>
      <rect
         y="421.20978"
         x="-542.2052"
         height="6.3176517"
         width="10.429611"
         id="rect6717"
         style="fill:#999999;fill-opacity:1;stroke:#000000;stroke-width:1.07137668;stroke-miterlimit:4;stroke-dasharray:none;stroke-dashoffset:0;stroke-opacity:1" />
      <rect
         y="422.93405"
         x="-520.13812"
         height="5.7849793"
         width="9.672945"
         id="rect6719"
         style="fill:#999999;fill-opacity:1;stroke:#000000;stroke-width:1.11750078;stroke-miterlimit:4;stroke-dasharray:none;stroke-dashoffset:0;stroke-opacity:1" />
      <rect
         y="423.35239"
         x="-495.55225"
         height="5.9202867"
         width="10.041976"
         id="rect6721"
         style="fill:#808080;fill-opacity:1;stroke:#000000;stroke-width:0.98386049;stroke-miterlimit:4;stroke-dasharray:none;stroke-dashoffset:0;stroke-opacity:1" />
    </g>
    <rect
       style="fill:#999999;fill-opacity:1;stroke:#000000;stroke-width:0.7801528;stroke-miterlimit:4;stroke-dasharray:none;stroke-dashoffset:0;stroke-opacity:1"
       id="rect6723"
       width="9.312089"
       height="6.0648599"
       x="-641.76239"
       y="694.40765" />
  </g>
</svg>
